PathFileType	4	(X/Y/Z)	/Users/niels/Desktop/University/Third Semester/Perception and Action/Exam/Gymnastics Motion Tracking/Code for Gym Tracking/Analyzed Data/Webcam_Backflip/id7_4_baseline_Sports2D/id7_4_baseline_Sports2D_px_person00.trc
DataRate	CameraRate	NumFrames	NumMarkers	Units	OrigDataRate	OrigDataStartFrame	OrigNumFrames
29.810126582278482	29.810126582278482	7	22	m	29.810126582278482	79	158
Frame#	Time	Hip			RHip			RKnee			RAnkle			RBigToe			RSmallToe			RHeel			LHip			LKnee			LAnkle			LBigToe			LSmallToe			LHeel			Neck			Head			Nose			RShoulder			RElbow			RWrist			LShoulder			LElbow			LWrist		
		X1	Y1	Z1	X2	Y2	Z2	X3	Y3	Z3	X4	Y4	Z4	X5	Y5	Z5	X6	Y6	Z6	X7	Y7	Z7	X8	Y8	Z8	X9	Y9	Z9	X10	Y10	Z10	X11	Y11	Z11	X12	Y12	Z12	X13	Y13	Z13	X14	Y14	Z14	X15	Y15	Z15	X16	Y16	Z16	X17	Y17	Z17	X18	Y18	Z18	X19	Y19	Z19	X20	Y20	Z20	X21	Y21	Z21	X22	Y22	Z22
79	2.6501061571125266	0.9386939417621271	-0.4850662153670996	0.0	0.941083177956553	-0.4844653127954803	0.0	0.943228879148889	-0.5997557167602617	0.0	0.9376972674232358	-0.7078471955950592	0.0	0.9711300523829596	-0.7378648842707243	0.0	0.9624420927217008	-0.7406655786741981	0.0	0.9324252712426441	-0.7234621026673893	0.0	0.9339980280939509	-0.48240049970930654	0.0	0.9382519028916737	-0.5993941327803289	0.0	0.9340528843755713	-0.7014440546951485	0.0	0.9710184144619322	-0.7287894669475141	0.0	0.9668215395626902	-0.7256430929035558	0.0	0.9237243933756657	-0.7139695052344511	0.0	0.9450424154550622	-0.3449824056521641	0.0	0.9592307870162269	-0.27084936012592653	0.0	0.9743274428346588	-0.30909436859224965	0.0	0.9472631220101356	-0.3604113341631601	0.0	0.9434124992759889	-0.3835280325236326	0.0	0.9770576242161794	-0.3828079411407211	0.0	0.932993594112383	-0.35712026225335236	0.0	0.9278907695928401	-0.3906442116785811	0.0	0.9654273825189894	-0.3870599420180583	0.0
80	2.683651804670913	0.9384682719321706	-0.4767413607410692	0.0	0.9406734063766338	-0.4768552161355382	0.0	0.9436407848141651	-0.5924981515934803	0.0	0.9380387137496902	-0.7002170201656718	0.0	0.9708563246694561	-0.7308625795108037	0.0	0.9612698202405497	-0.7340766013365018	0.0	0.9323983134247067	-0.7155659803022031	0.0	0.9340088735935093	-0.4746220494668265	0.0	0.9389862805535585	-0.5918408586278298	0.0	0.9347787555311733	-0.6938199313934619	0.0	0.9715874550767711	-0.7223969047409937	0.0	0.9678155492451567	-0.71917004966157	0.0	0.9244751302358464	-0.7069299623179097	0.0	0.9451840849813582	-0.33624061535205	0.0	0.9602155843016907	-0.26246530196915396	0.0	0.9748609568455141	-0.3001248726611199	0.0	0.9474716476513212	-0.3525228734419278	0.0	0.936722706166346	-0.38716533989780766	0.0	0.9641072038127726	-0.39978687679793606	0.0	0.9323331877490827	-0.34859696253417977	0.0	0.9180937607379166	-0.3860441933860826	0.0	0.9515324226372566	-0.39733669231974594	0.0
81	2.7171974522292994	0.9385496217695249	-0.47271363463891625	0.0	0.9406859843442498	-0.47349368971887884	0.0	0.9439025796095676	-0.5892932942853235	0.0	0.9376199627158821	-0.6968688594566027	0.0	0.9700057651750756	-0.7278003979786868	0.0	0.9598001223354639	-0.7313345679628586	0.0	0.9314472590683767	-0.7120461615768064	0.0	0.9344634422393242	-0.47112871733719897	0.0	0.9398131959875965	-0.5882149604643782	0.0	0.934893979173637	-0.6903962605318864	0.0	0.9713067652297351	-0.7200265989850643	0.0	0.9678491707239801	-0.7165672681003272	0.0	0.9243768800206169	-0.7042506974797123	0.0	0.9452673507280834	-0.3314693890053092	0.0	0.9607553307326514	-0.25832282333909684	0.0	0.9748736795348251	-0.29510405110381016	0.0	0.9473587068580038	-0.3482423969944185	0.0	0.9314424127554795	-0.3902805532578306	0.0	0.9485633783069572	-0.4159753984587844	0.0	0.9319084521665415	-0.3439268313083354	0.0	0.911183857327642	-0.38141849694824614	0.0	0.9376154660224308	-0.4064672552847337	0.0
82	2.7507430997876856	0.93885080102178	-0.4731978126104934	0.0	0.9410188803125661	-0.4744002182026405	0.0	0.9440380202885438	-0.5900795363350996	0.0	0.9365532540001161	-0.69793958956912	0.0	0.9686664314215926	-0.7291358443167333	0.0	0.9582201207595988	-0.7327980259163078	0.0	0.9297927798182166	-0.7132104181897349	0.0	0.9350960026435035	-0.47184100830261105	0.0	0.9405671464026918	-0.5885040262743363	0.0	0.9343264499735014	-0.6913299704773164	0.0	0.9702705795451271	-0.7219080827968573	0.0	0.966862391340338	-0.7180304829746417	0.0	0.9233751592221155	-0.7060376221535252	0.0	0.9451987687451416	-0.33092037705017974	0.0	0.9609504563974481	-0.2584873884040216	0.0	0.9746254482056828	-0.29431496742039787	0.0	0.9471301268676227	-0.34800917784007596	0.0	0.9269733472327841	-0.3941818424506492	0.0	0.9324071687206015	-0.43207627738840676	0.0	0.9314897482508917	-0.3432772127182258	0.0	0.9063407559248298	-0.37892561213153747	0.0	0.9245512165626658	-0.41582479839716063	0.0
83	2.7842887473460722	0.9392739125220411	-0.47837329945686946	0.0	0.9415316570452559	-0.4796809570941769	0.0	0.9440494320936843	-0.5948853238714548	0.0	0.934975388721028	-0.7034805934885933	0.0	0.9669806129449099	-0.734880567489029	0.0	0.9566646864205455	-0.7384881199014897	0.0	0.9276327133180841	-0.7191693062225919	0.0	0.935757843835254	-0.47681357356564713	0.0	0.9411132465215156	-0.5928114377087476	0.0	0.933120478759384	-0.6966985246973937	0.0	0.9687446701407747	-0.7279484880717482	0.0	0.965054277065479	-0.7235652048365343	0.0	0.9215839359194979	-0.7122489167649381	0.0	0.9448972570704561	-0.3347654201215393	0.0	0.960957545115903	-0.2629807557609328	0.0	0.9744038749911094	-0.2979703223458697	0.0	0.946804671029064	-0.35223670214858616	0.0	0.9227294263962512	-0.401041164639209	0.0	0.9174763446761592	-0.4493004801231791	0.0	0.9308350047491974	-0.34682049073967297	0.0	0.9024916939079906	-0.38041149103509875	0.0	0.9132172988302099	-0.4265877171758786	0.0
84	2.8178343949044584	0.9396943463382221	-0.48813848370083635	0.0	0.9420314077103729	-0.48925161090969693	0.0	0.9439279788607619	-0.6037230204202889	0.0	0.9329894169069785	-0.7133283907307775	0.0	0.9650760084151287	-0.7445218316060469	0.0	0.9551586446451622	-0.7479912101903148	0.0	0.9251044757746061	-0.7296540007993644	0.0	0.936409804035804	-0.4859927292543417	0.0	0.9413762259711878	-0.6012254981209638	0.0	0.9313989296690238	-0.7063324222246387	0.0	0.9670015834933852	-0.7376270069161269	0.0	0.9627448961998029	-0.7328883276984157	0.0	0.9192348029443759	-0.7225454469152893	0.0	0.9442824001445254	-0.34304233587982397	0.0	0.9608955697940393	-0.2717376316863042	0.0	0.974344866662297	-0.30616370546927	0.0	0.9462407793108961	-0.36106820432402253	0.0	0.9185444059958626	-0.4123327240047177	0.0	0.9049249620605948	-0.46831788974086225	0.0	0.9297535139084989	-0.35463082539649565	0.0	0.89880063442105	-0.38674174331158484	0.0	0.9040886801655622	-0.4389496404067894	0.0
85	2.851380042462845	0.9399848044247553	-0.5019791033021241	0.0	0.9423265788647017	-0.5026893825932061	0.0	0.9436464775268137	-0.6164215687487284	0.0	0.9306307288725404	-0.7269370843432108	0.0	0.9629853978459736	-0.7570762785386324	0.0	0.9535852131529302	-0.7604359569209025	0.0	0.9222996578705723	-0.7438549641718273	0.0	0.9370371667208706	-0.49902778937151787	0.0	0.941324980306251	-0.6136080260464949	0.0	0.9292752863505245	-0.7196801234393297	0.0	0.9652038887584421	-0.7500505526500725	0.0	0.960192413311461	-0.7453344578477954	0.0	0.9166042515357794	-0.7361955039531721	0.0	0.9433843586864412	-0.3555297619427652	0.0	0.9607639050562251	-0.2845191611537217	0.0	0.9743867369412814	-0.3187395608561474	0.0	0.945343789274337	-0.3742677727195834	0.0	0.9146784983941822	-0.42822032100519986	0.0	0.8952788970033942	-0.4891758169964244	0.0	0.9283076744878963	-0.3666216260485312	0.0	0.8949983320006566	-0.39791912275780555	0.0	0.897160373159044	-0.45261843963488463	0.0
